<svg width="33" height="36" viewBox="0 0 33 36" fill="none" xmlns="http://www.w3.org/2000/svg">
<g filter="url(#filter0_d)">
<path d="M7.5 4.76367C7.5 5.56055 7.27148 6.17578 6.81445 6.60937C6.36914 7.04297 5.80664 7.25976 5.12695 7.25976C4.45898 7.25976 3.90234 7.04297 3.45703 6.60937C3.02344 6.17578 2.80664 5.56055 2.80664 4.76367C2.80664 4.00195 3.02344 3.39844 3.45703 2.95312C3.89062 2.50781 4.44727 2.28515 5.12695 2.28515C5.80664 2.28515 6.36914 2.50195 6.81445 2.93555C7.27148 3.36914 7.5 3.97851 7.5 4.76367ZM22.4238 4.76367C22.4238 5.56055 22.1953 6.17578 21.7383 6.60937C21.293 7.04297 20.7305 7.25976 20.0508 7.25976C19.3828 7.25976 18.8262 7.04297 18.3809 6.60937C17.9473 6.17578 17.7305 5.56055 17.7305 4.76367C17.7305 4.00195 17.9473 3.39844 18.3809 2.95312C18.8145 2.50781 19.3711 2.28516 20.0508 2.28516C20.7305 2.28516 21.293 2.50195 21.7383 2.93555C22.1953 3.36914 22.4238 3.97852 22.4238 4.76367ZM3 12.1641L28.5937 12.1641L28.5937 19.7227C28.5937 21.9844 28.0898 23.9883 27.082 25.7344C26.0742 27.4922 24.6445 28.8516 22.793 29.8125C20.9414 30.7734 18.8203 31.2539 16.4297 31.2539L15.1465 31.2539C12.7207 31.2539 10.5879 30.7676 8.74805 29.7949C6.9082 28.834 5.49023 27.457 4.49414 25.6641C3.49805 23.8828 3 21.8379 3 19.5293L3 12.1641ZM25.0078 16.6113L6.55078 16.6113L6.55078 19.5117C6.55078 21.8437 7.27734 23.6309 8.73047 24.873C10.1953 26.127 12.293 26.7656 15.0234 26.7891L16.4473 26.7891C19.2246 26.7891 21.3457 26.1855 22.8105 24.9785C24.2754 23.7715 25.0078 22.0195 25.0078 19.7227L25.0078 16.6113Z" fill="#FFD600"/>
</g>
<defs>
<filter id="filter0_d" x="0.806641" y="0.285156" width="31.7871" height="34.9688" filterUnits="userSpaceOnUse" color-interpolation-filters="sRGB">
<feFlood flood-opacity="0" result="BackgroundImageFix"/>
<feColorMatrix in="SourceAlpha" type="matrix" values="0 0 0 0 0 0 0 0 0 0 0 0 0 0 0 0 0 0 127 0"/>
<feOffset dx="1" dy="1"/>
<feGaussianBlur stdDeviation="1.5"/>
<feColorMatrix type="matrix" values="0 0 0 0 0.554167 0 0 0 0 0.43225 0 0 0 0 0 0 0 0 0.25 0"/>
<feBlend mode="normal" in2="BackgroundImageFix" result="effect1_dropShadow"/>
<feBlend mode="normal" in="SourceGraphic" in2="effect1_dropShadow" result="shape"/>
</filter>
</defs>
</svg>
