<svg width="33" height="36" viewBox="0 0 33 36" fill="none" xmlns="http://www.w3.org/2000/svg">
<g filter="url(#filter0_d)">
<path d="M7.5 5.26367C7.5 6.06055 7.27148 6.67578 6.81445 7.10937C6.36914 7.54297 5.80664 7.75976 5.12695 7.75976C4.45898 7.75976 3.90234 7.54297 3.45703 7.10937C3.02344 6.67578 2.80664 6.06055 2.80664 5.26367C2.80664 4.50195 3.02344 3.89844 3.45703 3.45312C3.89062 3.00781 4.44727 2.78515 5.12695 2.78515C5.80664 2.78515 6.36914 3.00195 6.81445 3.43555C7.27148 3.86914 7.5 4.47851 7.5 5.26367ZM22.4238 5.26367C22.4238 6.06055 22.1953 6.67578 21.7383 7.10937C21.293 7.54297 20.7305 7.75976 20.0508 7.75976C19.3828 7.75976 18.8262 7.54297 18.3809 7.10937C17.9473 6.67578 17.7305 6.06055 17.7305 5.26367C17.7305 4.50195 17.9473 3.89844 18.3809 3.45312C18.8145 3.00781 19.3711 2.78516 20.0508 2.78516C20.7305 2.78516 21.293 3.00195 21.7383 3.43555C22.1953 3.86914 22.4238 4.47852 22.4238 5.26367ZM12.5098 17.1113L3 17.1113L3 12.6641L28.5937 12.6641L28.5937 22.4551C28.5937 25.3145 27.8496 27.582 26.3613 29.2578C24.873 30.9453 22.9043 31.7891 20.4551 31.7891C17.9473 31.7891 15.9961 30.9629 14.6016 29.3105C13.207 27.6699 12.5098 25.3672 12.5098 22.4023L12.5098 17.1113ZM16.0781 17.1113L16.0781 22.4551C16.0781 24.0371 16.4473 25.2441 17.1855 26.0762C17.9355 26.9082 19.0137 27.3242 20.4199 27.3242C21.8027 27.3242 22.9043 26.9023 23.7246 26.0586C24.5566 25.2148 24.9844 24.0547 25.0078 22.5781L25.0078 17.1113L16.0781 17.1113Z" fill="#FFD600"/>
</g>
<defs>
<filter id="filter0_d" x="0.806641" y="0.785156" width="31.7871" height="35.0039" filterUnits="userSpaceOnUse" color-interpolation-filters="sRGB">
<feFlood flood-opacity="0" result="BackgroundImageFix"/>
<feColorMatrix in="SourceAlpha" type="matrix" values="0 0 0 0 0 0 0 0 0 0 0 0 0 0 0 0 0 0 127 0"/>
<feOffset dx="1" dy="1"/>
<feGaussianBlur stdDeviation="1.5"/>
<feColorMatrix type="matrix" values="0 0 0 0 0.554167 0 0 0 0 0.43225 0 0 0 0 0 0 0 0 0.25 0"/>
<feBlend mode="normal" in2="BackgroundImageFix" result="effect1_dropShadow"/>
<feBlend mode="normal" in="SourceGraphic" in2="effect1_dropShadow" result="shape"/>
</filter>
</defs>
</svg>
