<svg width="103" height="56" viewBox="0 0 103 56" fill="none" xmlns="http://www.w3.org/2000/svg">
<path d="M1.85254 51.25C2.16243 51.25 2.40169 51.3389 2.57031 51.5166C2.73893 51.6898 2.82324 51.9085 2.82324 52.1729C2.82324 52.4326 2.73893 52.6491 2.57031 52.8223C2.40169 52.9909 2.16243 53.0752 1.85254 53.0752C1.55632 53.0752 1.32161 52.9909 1.14844 52.8223C0.97526 52.6536 0.888672 52.4372 0.888672 52.1729C0.888672 51.9085 0.972982 51.6898 1.1416 51.5166C1.31022 51.3389 1.5472 51.25 1.85254 51.25ZM1.85254 45.4463C2.16243 45.4463 2.40169 45.5352 2.57031 45.7129C2.73893 45.8861 2.82324 46.1048 2.82324 46.3691C2.82324 46.6289 2.73893 46.8454 2.57031 47.0186C2.40169 47.1872 2.16243 47.2715 1.85254 47.2715C1.55632 47.2715 1.32161 47.1872 1.14844 47.0186C0.97526 46.8499 0.888672 46.6335 0.888672 46.3691C0.888672 46.1048 0.972982 45.8861 1.1416 45.7129C1.31022 45.5352 1.5472 45.4463 1.85254 45.4463ZM4.73047 53V43.0469H7.66992C8.54948 43.0469 9.32878 43.2428 10.0078 43.6348C10.6914 44.0267 11.2201 44.5827 11.5938 45.3027C11.9674 46.0228 12.1543 46.8477 12.1543 47.7773V48.2764C12.1543 49.2197 11.9652 50.0492 11.5869 50.7646C11.2132 51.4801 10.6777 52.0316 9.98047 52.4189C9.28776 52.8063 8.49251 53 7.59473 53H4.73047ZM6.45996 44.4414V51.6191H7.58789C8.49479 51.6191 9.18978 51.3366 9.67285 50.7715C10.1605 50.2018 10.4089 49.3861 10.418 48.3242V47.7705C10.418 46.6904 10.1833 45.8656 9.71387 45.2959C9.24447 44.7262 8.56315 44.4414 7.66992 44.4414H6.45996ZM16.9736 53.1367C15.9209 53.1367 15.0664 52.8063 14.4102 52.1455C13.7585 51.4801 13.4326 50.596 13.4326 49.4932V49.2881C13.4326 48.5498 13.5739 47.8913 13.8564 47.3125C14.1436 46.7292 14.5446 46.2757 15.0596 45.9521C15.5745 45.6286 16.1488 45.4668 16.7822 45.4668C17.7894 45.4668 18.5664 45.7881 19.1133 46.4307C19.6647 47.0732 19.9404 47.9824 19.9404 49.1582V49.8281H15.1074C15.1576 50.4388 15.3604 50.9219 15.7158 51.2773C16.0758 51.6328 16.527 51.8105 17.0693 51.8105C17.8304 51.8105 18.4502 51.5029 18.9287 50.8877L19.8242 51.7422C19.528 52.1842 19.1315 52.5283 18.6348 52.7744C18.1426 53.016 17.5889 53.1367 16.9736 53.1367ZM16.7754 46.7998C16.3197 46.7998 15.9505 46.9593 15.668 47.2783C15.39 47.5973 15.2122 48.0417 15.1348 48.6113H18.2998V48.4883C18.2633 47.9323 18.1152 47.513 17.8555 47.2305C17.5957 46.9434 17.2357 46.7998 16.7754 46.7998ZM22.7773 45.6035L22.8252 46.458C23.3721 45.7972 24.0898 45.4668 24.9785 45.4668C26.5189 45.4668 27.3027 46.3486 27.3301 48.1123V53H25.6689V48.208C25.6689 47.7386 25.5664 47.3923 25.3613 47.1689C25.1608 46.9411 24.8304 46.8271 24.3701 46.8271C23.7002 46.8271 23.2012 47.1302 22.873 47.7363V53H21.2119V45.6035H22.7773ZM31.1104 43.8057V45.6035H32.416V46.834H31.1104V50.9629C31.1104 51.2454 31.165 51.4505 31.2744 51.5781C31.3883 51.7012 31.5889 51.7627 31.876 51.7627C32.0674 51.7627 32.2611 51.7399 32.457 51.6943V52.9795C32.0788 53.0843 31.7142 53.1367 31.3633 53.1367C30.0872 53.1367 29.4492 52.4326 29.4492 51.0244V46.834H28.2324V45.6035H29.4492V43.8057H31.1104ZM38.1104 53C38.0374 52.8587 37.9736 52.6286 37.9189 52.3096C37.3903 52.861 36.7432 53.1367 35.9775 53.1367C35.2347 53.1367 34.6286 52.9248 34.1592 52.501C33.6898 52.0771 33.4551 51.5531 33.4551 50.9287C33.4551 50.1403 33.7467 49.5365 34.3301 49.1172C34.918 48.6934 35.7565 48.4814 36.8457 48.4814H37.8643V47.9961C37.8643 47.6133 37.7572 47.3079 37.543 47.0801C37.3288 46.8477 37.0029 46.7314 36.5654 46.7314C36.1872 46.7314 35.8773 46.8271 35.6357 47.0186C35.3942 47.2054 35.2734 47.4447 35.2734 47.7363H33.6123C33.6123 47.3307 33.7467 46.9525 34.0156 46.6016C34.2845 46.2461 34.6491 45.9681 35.1094 45.7676C35.5742 45.5671 36.0915 45.4668 36.6611 45.4668C37.527 45.4668 38.2174 45.6855 38.7324 46.123C39.2474 46.556 39.5117 47.1667 39.5254 47.9551V51.291C39.5254 51.9564 39.6188 52.4873 39.8057 52.8838V53H38.1104ZM36.2852 51.8037C36.6133 51.8037 36.9209 51.724 37.208 51.5645C37.4997 51.4049 37.7184 51.1908 37.8643 50.9219V49.5273H36.9688C36.3535 49.5273 35.891 49.6344 35.5811 49.8486C35.2712 50.0628 35.1162 50.3659 35.1162 50.7578C35.1162 51.0768 35.221 51.332 35.4307 51.5234C35.6449 51.7103 35.9297 51.8037 36.2852 51.8037ZM43.0322 53H41.3711V42.5H43.0322V53ZM49.335 51.25C49.6449 51.25 49.8841 51.3389 50.0527 51.5166C50.2214 51.6898 50.3057 51.9085 50.3057 52.1729C50.3057 52.4326 50.2214 52.6491 50.0527 52.8223C49.8841 52.9909 49.6449 53.0752 49.335 53.0752C49.0387 53.0752 48.804 52.9909 48.6309 52.8223C48.4577 52.6536 48.3711 52.4372 48.3711 52.1729C48.3711 51.9085 48.4554 51.6898 48.624 51.5166C48.7926 51.3389 49.0296 51.25 49.335 51.25ZM49.335 45.4463C49.6449 45.4463 49.8841 45.5352 50.0527 45.7129C50.2214 45.8861 50.3057 46.1048 50.3057 46.3691C50.3057 46.6289 50.2214 46.8454 50.0527 47.0186C49.8841 47.1872 49.6449 47.2715 49.335 47.2715C49.0387 47.2715 48.804 47.1872 48.6309 47.0186C48.4577 46.8499 48.3711 46.6335 48.3711 46.3691C48.3711 46.1048 48.4554 45.8861 48.624 45.7129C48.7926 45.5352 49.0296 45.4463 49.335 45.4463ZM53.9424 49.3018V53H52.2129V43.0469H56.0205C57.1325 43.0469 58.0143 43.3363 58.666 43.915C59.3223 44.4938 59.6504 45.2594 59.6504 46.2119C59.6504 47.1872 59.3291 47.946 58.6865 48.4883C58.0485 49.0306 57.153 49.3018 56 49.3018H53.9424ZM53.9424 47.9141H56.0205C56.6357 47.9141 57.1051 47.7705 57.4287 47.4834C57.7523 47.1917 57.9141 46.7725 57.9141 46.2256C57.9141 45.6878 57.75 45.2594 57.4219 44.9404C57.0938 44.6169 56.6426 44.4505 56.0684 44.4414H53.9424V47.9141ZM64.8799 47.1211C64.6611 47.0846 64.4355 47.0664 64.2031 47.0664C63.4421 47.0664 62.9294 47.3581 62.665 47.9414V53H61.0039V45.6035H62.5898L62.6309 46.4307C63.0319 45.7881 63.5879 45.4668 64.2988 45.4668C64.5358 45.4668 64.7318 45.4987 64.8867 45.5625L64.8799 47.1211ZM70.1436 53C70.0706 52.8587 70.0068 52.6286 69.9521 52.3096C69.4235 52.861 68.7764 53.1367 68.0107 53.1367C67.2679 53.1367 66.6618 52.9248 66.1924 52.501C65.723 52.0771 65.4883 51.5531 65.4883 50.9287C65.4883 50.1403 65.7799 49.5365 66.3633 49.1172C66.9512 48.6934 67.7897 48.4814 68.8789 48.4814H69.8975V47.9961C69.8975 47.6133 69.7904 47.3079 69.5762 47.0801C69.362 46.8477 69.0361 46.7314 68.5986 46.7314C68.2204 46.7314 67.9105 46.8271 67.6689 47.0186C67.4274 47.2054 67.3066 47.4447 67.3066 47.7363H65.6455C65.6455 47.3307 65.7799 46.9525 66.0488 46.6016C66.3177 46.2461 66.6823 45.9681 67.1426 45.7676C67.6074 45.5671 68.1247 45.4668 68.6943 45.4668C69.5602 45.4668 70.2507 45.6855 70.7656 46.123C71.2806 46.556 71.5449 47.1667 71.5586 47.9551V51.291C71.5586 51.9564 71.652 52.4873 71.8389 52.8838V53H70.1436ZM68.3184 51.8037C68.6465 51.8037 68.9541 51.724 69.2412 51.5645C69.5329 51.4049 69.7516 51.1908 69.8975 50.9219V49.5273H69.002C68.3867 49.5273 67.9242 49.6344 67.6143 49.8486C67.3044 50.0628 67.1494 50.3659 67.1494 50.7578C67.1494 51.0768 67.2542 51.332 67.4639 51.5234C67.6781 51.7103 67.9629 51.8037 68.3184 51.8037ZM76.3369 51.8105C76.7516 51.8105 77.0957 51.6898 77.3691 51.4482C77.6426 51.2067 77.7884 50.9082 77.8066 50.5527H79.3721C79.3538 51.013 79.2103 51.4437 78.9414 51.8447C78.6725 52.2412 78.3079 52.5557 77.8477 52.7881C77.3874 53.0205 76.8906 53.1367 76.3574 53.1367C75.3229 53.1367 74.5026 52.8018 73.8965 52.1318C73.2904 51.4619 72.9873 50.5368 72.9873 49.3564V49.1855C72.9873 48.0599 73.2881 47.1598 73.8896 46.4854C74.4912 45.8063 75.3115 45.4668 76.3506 45.4668C77.2301 45.4668 77.9456 45.7243 78.4971 46.2393C79.0531 46.7497 79.3447 47.4219 79.3721 48.2559H77.8066C77.7884 47.832 77.6426 47.4834 77.3691 47.21C77.1003 46.9365 76.7562 46.7998 76.3369 46.7998C75.7992 46.7998 75.3844 46.9958 75.0928 47.3877C74.8011 47.7751 74.653 48.3652 74.6484 49.1582V49.4248C74.6484 50.2269 74.792 50.8262 75.0791 51.2227C75.3708 51.6146 75.79 51.8105 76.3369 51.8105ZM82.708 43.8057V45.6035H84.0137V46.834H82.708V50.9629C82.708 51.2454 82.7627 51.4505 82.8721 51.5781C82.986 51.7012 83.1865 51.7627 83.4736 51.7627C83.665 51.7627 83.8587 51.7399 84.0547 51.6943V52.9795C83.6764 53.0843 83.3118 53.1367 82.9609 53.1367C81.6849 53.1367 81.0469 52.4326 81.0469 51.0244V46.834H79.8301V45.6035H81.0469V43.8057H82.708ZM87.0557 53H85.3945V45.6035H87.0557V53ZM85.292 43.6826C85.292 43.4274 85.3717 43.2155 85.5312 43.0469C85.6953 42.8783 85.9277 42.7939 86.2285 42.7939C86.5293 42.7939 86.7617 42.8783 86.9258 43.0469C87.0898 43.2155 87.1719 43.4274 87.1719 43.6826C87.1719 43.9333 87.0898 44.1429 86.9258 44.3115C86.7617 44.4756 86.5293 44.5576 86.2285 44.5576C85.9277 44.5576 85.6953 44.4756 85.5312 44.3115C85.3717 44.1429 85.292 43.9333 85.292 43.6826ZM91.9092 51.8105C92.3239 51.8105 92.668 51.6898 92.9414 51.4482C93.2148 51.2067 93.3607 50.9082 93.3789 50.5527H94.9443C94.9261 51.013 94.7826 51.4437 94.5137 51.8447C94.2448 52.2412 93.8802 52.5557 93.4199 52.7881C92.9596 53.0205 92.4629 53.1367 91.9297 53.1367C90.8952 53.1367 90.0749 52.8018 89.4688 52.1318C88.8626 51.4619 88.5596 50.5368 88.5596 49.3564V49.1855C88.5596 48.0599 88.8604 47.1598 89.4619 46.4854C90.0635 45.8063 90.8838 45.4668 91.9229 45.4668C92.8024 45.4668 93.5179 45.7243 94.0693 46.2393C94.6253 46.7497 94.917 47.4219 94.9443 48.2559H93.3789C93.3607 47.832 93.2148 47.4834 92.9414 47.21C92.6725 46.9365 92.3285 46.7998 91.9092 46.7998C91.3714 46.7998 90.9567 46.9958 90.665 47.3877C90.3734 47.7751 90.2253 48.3652 90.2207 49.1582V49.4248C90.2207 50.2269 90.3643 50.8262 90.6514 51.2227C90.943 51.6146 91.3623 51.8105 91.9092 51.8105ZM99.4561 53.1367C98.4033 53.1367 97.5488 52.8063 96.8926 52.1455C96.2409 51.4801 95.915 50.596 95.915 49.4932V49.2881C95.915 48.5498 96.0563 47.8913 96.3389 47.3125C96.626 46.7292 97.027 46.2757 97.542 45.9521C98.057 45.6286 98.6312 45.4668 99.2646 45.4668C100.272 45.4668 101.049 45.7881 101.596 46.4307C102.147 47.0732 102.423 47.9824 102.423 49.1582V49.8281H97.5898C97.64 50.4388 97.8428 50.9219 98.1982 51.2773C98.5583 51.6328 99.0094 51.8105 99.5518 51.8105C100.313 51.8105 100.933 51.5029 101.411 50.8877L102.307 51.7422C102.01 52.1842 101.614 52.5283 101.117 52.7744C100.625 53.016 100.071 53.1367 99.4561 53.1367ZM99.2578 46.7998C98.8021 46.7998 98.4329 46.9593 98.1504 47.2783C97.8724 47.5973 97.6947 48.0417 97.6172 48.6113H100.782V48.4883C100.746 47.9323 100.598 47.513 100.338 47.2305C100.078 46.9434 99.7181 46.7998 99.2578 46.7998Z" fill="#0055B8"/>
<g filter="url(#filter0_d)">
<path d="M23.5 4.76367C23.5 5.56055 23.2715 6.17578 22.8145 6.60937C22.3691 7.04297 21.8066 7.25976 21.127 7.25976C20.459 7.25976 19.9023 7.04297 19.457 6.60937C19.0234 6.17578 18.8066 5.56055 18.8066 4.76367C18.8066 4.00195 19.0234 3.39844 19.457 2.95312C19.8906 2.50781 20.4473 2.28515 21.127 2.28515C21.8066 2.28515 22.3691 2.50195 22.8145 2.93555C23.2715 3.36914 23.5 3.97851 23.5 4.76367ZM38.4238 4.76367C38.4238 5.56055 38.1953 6.17578 37.7383 6.60937C37.293 7.04297 36.7305 7.25976 36.0508 7.25976C35.3828 7.25976 34.8262 7.04297 34.3809 6.60937C33.9473 6.17578 33.7305 5.56055 33.7305 4.76367C33.7305 4.00195 33.9473 3.39844 34.3809 2.95312C34.8145 2.50781 35.3711 2.28516 36.0508 2.28516C36.7305 2.28516 37.293 2.50195 37.7383 2.93555C38.1953 3.36914 38.4238 3.97852 38.4238 4.76367ZM19 12.1641L44.5937 12.1641L44.5937 19.7227C44.5937 21.9844 44.0898 23.9883 43.082 25.7344C42.0742 27.4922 40.6445 28.8516 38.793 29.8125C36.9414 30.7734 34.8203 31.2539 32.4297 31.2539L31.1465 31.2539C28.7207 31.2539 26.5879 30.7676 24.748 29.7949C22.9082 28.834 21.4902 27.457 20.4941 25.6641C19.498 23.8828 19 21.8379 19 19.5293L19 12.1641ZM41.0078 16.6113L22.5508 16.6113L22.5508 19.5117C22.5508 21.8437 23.2773 23.6309 24.7305 24.873C26.1953 26.127 28.293 26.7656 31.0234 26.7891L32.4473 26.7891C35.2246 26.7891 37.3457 26.1855 38.8105 24.9785C40.2754 23.7715 41.0078 22.0195 41.0078 19.7227L41.0078 16.6113Z" fill="#FFD600"/>
</g>
<g filter="url(#filter1_d)">
<path d="M65.5 5.26367C65.5 6.06055 65.2715 6.67578 64.8145 7.10937C64.3691 7.54297 63.8066 7.75976 63.127 7.75976C62.459 7.75976 61.9023 7.54297 61.457 7.10937C61.0234 6.67578 60.8066 6.06055 60.8066 5.26367C60.8066 4.50195 61.0234 3.89844 61.457 3.45312C61.8906 3.00781 62.4473 2.78515 63.127 2.78515C63.8066 2.78515 64.3691 3.00195 64.8145 3.43555C65.2715 3.86914 65.5 4.47851 65.5 5.26367ZM80.4238 5.26367C80.4238 6.06055 80.1953 6.67578 79.7383 7.10937C79.293 7.54297 78.7305 7.75976 78.0508 7.75976C77.3828 7.75976 76.8262 7.54297 76.3809 7.10937C75.9473 6.67578 75.7305 6.06055 75.7305 5.26367C75.7305 4.50195 75.9473 3.89844 76.3809 3.45312C76.8145 3.00781 77.3711 2.78516 78.0508 2.78516C78.7305 2.78516 79.293 3.00195 79.7383 3.43555C80.1953 3.86914 80.4238 4.47852 80.4238 5.26367ZM70.5098 17.1113L61 17.1113L61 12.6641L86.5937 12.6641L86.5937 22.4551C86.5937 25.3145 85.8496 27.582 84.3613 29.2578C82.873 30.9453 80.9043 31.7891 78.4551 31.7891C75.9473 31.7891 73.9961 30.9629 72.6016 29.3105C71.207 27.6699 70.5098 25.3672 70.5098 22.4023L70.5098 17.1113ZM74.0781 17.1113L74.0781 22.4551C74.0781 24.0371 74.4473 25.2441 75.1855 26.0762C75.9355 26.9082 77.0137 27.3242 78.4199 27.3242C79.8027 27.3242 80.9043 26.9023 81.7246 26.0586C82.5566 25.2148 82.9844 24.0547 83.0078 22.5781L83.0078 17.1113L74.0781 17.1113Z" fill="#FFD600"/>
</g>
<defs>
<filter id="filter0_d" x="16.8066" y="0.285156" width="31.7871" height="34.9688" filterUnits="userSpaceOnUse" color-interpolation-filters="sRGB">
<feFlood flood-opacity="0" result="BackgroundImageFix"/>
<feColorMatrix in="SourceAlpha" type="matrix" values="0 0 0 0 0 0 0 0 0 0 0 0 0 0 0 0 0 0 127 0"/>
<feOffset dx="1" dy="1"/>
<feGaussianBlur stdDeviation="1.5"/>
<feColorMatrix type="matrix" values="0 0 0 0 0.554167 0 0 0 0 0.43225 0 0 0 0 0 0 0 0 0.25 0"/>
<feBlend mode="normal" in2="BackgroundImageFix" result="effect1_dropShadow"/>
<feBlend mode="normal" in="SourceGraphic" in2="effect1_dropShadow" result="shape"/>
</filter>
<filter id="filter1_d" x="58.8066" y="0.785156" width="31.7871" height="35.0039" filterUnits="userSpaceOnUse" color-interpolation-filters="sRGB">
<feFlood flood-opacity="0" result="BackgroundImageFix"/>
<feColorMatrix in="SourceAlpha" type="matrix" values="0 0 0 0 0 0 0 0 0 0 0 0 0 0 0 0 0 0 127 0"/>
<feOffset dx="1" dy="1"/>
<feGaussianBlur stdDeviation="1.5"/>
<feColorMatrix type="matrix" values="0 0 0 0 0.554167 0 0 0 0 0.43225 0 0 0 0 0 0 0 0 0.25 0"/>
<feBlend mode="normal" in2="BackgroundImageFix" result="effect1_dropShadow"/>
<feBlend mode="normal" in="SourceGraphic" in2="effect1_dropShadow" result="shape"/>
</filter>
</defs>
</svg>
