<svg width="26" height="26" viewBox="0 0 26 26" fill="none" xmlns="http://www.w3.org/2000/svg">
<path d="M14.0833 16.5371C13.6717 16.9163 13.39 17.1492 13.3683 17.1654L12.9837 17.4742L12.5992 17.1654C12.5992 17.1654 12.2958 16.9163 11.8842 16.5371C10.867 16.5777 9.85719 16.7284 8.8725 16.9867C8.45082 17.0745 8.05564 17.26 7.71875 17.5284C8.16195 17.861 8.68159 18.0771 9.23 18.1567C10.4627 18.4262 11.722 18.5552 12.9837 18.5413C14.2455 18.5552 15.5048 18.4262 16.7375 18.1567C17.2859 18.0771 17.8055 17.861 18.2487 17.5284C17.9084 17.259 17.5095 17.0734 17.0842 16.9867C16.1029 16.7296 15.0968 16.5789 14.0833 16.5371Z" fill="#0055B8"/>
<path d="M13.0001 10.725C13.6851 10.725 14.2405 10.1696 14.2405 9.48456C14.2405 8.79949 13.6851 8.24414 13.0001 8.24414C12.315 8.24414 11.7596 8.79949 11.7596 9.48456C11.7596 10.1696 12.315 10.725 13.0001 10.725Z" fill="#0055B8"/>
<path d="M13 15.8979C13.6622 15.3078 14.2863 14.6764 14.8687 14.0075C16.277 12.3825 17.0354 10.9145 17.0354 9.77704V9.48454C17.0354 8.95603 16.9313 8.43269 16.729 7.9444C16.5268 7.45612 16.2303 7.01245 15.8566 6.63873C15.4829 6.26502 15.0392 5.96857 14.5509 5.76631C14.0626 5.56406 13.5393 5.45996 13.0108 5.45996C12.4823 5.45996 11.9589 5.56406 11.4706 5.76631C10.9824 5.96857 10.5387 6.26502 10.165 6.63873C9.79126 7.01245 9.49481 7.45612 9.29256 7.9444C9.0903 8.43269 8.98621 8.95603 8.98621 9.48454V9.74996C8.98621 10.8929 9.73371 12.3608 11.1529 13.9966C11.7279 14.6687 12.3448 15.3037 13 15.8979ZM13 7.04163C13.4853 7.04163 13.9597 7.18554 14.3632 7.45516C14.7667 7.72478 15.0812 8.108 15.2669 8.55637C15.4526 9.00473 15.5012 9.4981 15.4066 9.97408C15.3119 10.4501 15.0782 10.8873 14.735 11.2304C14.3919 11.5736 13.9546 11.8073 13.4787 11.902C13.0027 11.9967 12.5093 11.9481 12.0609 11.7623C11.6126 11.5766 11.2294 11.2621 10.9597 10.8586C10.6901 10.4551 10.5462 9.98068 10.5462 9.49538C10.5462 8.8446 10.8047 8.22048 11.2649 7.76031C11.7251 7.30015 12.3492 7.04163 13 7.04163Z" fill="#0055B8"/>
<path d="M13 0C9.55219 0 6.24558 1.36964 3.80761 3.80761C1.36964 6.24558 0 9.55219 0 13H0C0 16.4478 1.36964 19.7544 3.80761 22.1924C6.24558 24.6304 9.55219 26 13 26C16.4478 26 19.7544 24.6304 22.1924 22.1924C24.6304 19.7544 26 16.4478 26 13C26 9.55219 24.6304 6.24558 22.1924 3.80761C19.7544 1.36964 16.4478 0 13 0V0ZM17.3333 19.2508C15.9158 19.5993 14.4596 19.7649 13 19.7438C11.5404 19.7649 10.0842 19.5993 8.66667 19.2508C7.22583 18.8554 6.5 18.2758 6.5 17.5229C6.5 16.1146 9.08375 15.6 10.7792 15.4158C10.6004 15.2262 10.4217 15.0258 10.2375 14.8146C8.6125 12.9296 7.77292 11.2342 7.77292 9.77708V9.48458C7.75034 8.78292 7.86905 8.08387 8.12199 7.42899C8.37492 6.77411 8.75692 6.17676 9.24529 5.67243C9.73365 5.1681 10.3184 4.76709 10.9648 4.49323C11.6112 4.21937 12.3061 4.07825 13.0081 4.07825C13.7102 4.07825 14.405 4.21937 15.0514 4.49323C15.6978 4.76709 16.2826 5.1681 16.771 5.67243C17.2593 6.17676 17.6413 6.77411 17.8943 7.42899C18.1472 8.08387 18.2659 8.78292 18.2433 9.48458V9.75C18.2433 11.2071 17.4146 12.9025 15.7788 14.7875C15.5946 14.9987 15.4158 15.1992 15.2371 15.3888C16.9379 15.5729 19.5163 16.0875 19.5163 17.4958C19.5 18.2704 18.7742 18.8554 17.3333 19.2508Z" fill="#0055B8"/>
</svg>
