<svg width="26" height="26" viewBox="0 0 26 26" fill="none" xmlns="http://www.w3.org/2000/svg">
<path d="M7.61035 10.0479V15.952L10.5624 12.9999L7.61035 10.0479Z" fill="#0055B8"/>
<path d="M14.7713 14.4733C14.4098 14.8279 13.9236 15.0266 13.4171 15.0266C12.9107 15.0266 12.4245 14.8279 12.063 14.4733L11.5213 13.9316L8.56921 16.8837H18.3192L15.3671 13.9316L14.7713 14.4733Z" fill="#0055B8"/>
<path d="M13.8612 13.5416L18.2866 9.11621H8.53662L12.9512 13.5416C13.072 13.662 13.2356 13.7296 13.4062 13.7296C13.5768 13.7296 13.7404 13.662 13.8612 13.5416Z" fill="#0055B8"/>
<path d="M13 0C9.55219 0 6.24558 1.36964 3.80761 3.80761C1.36964 6.24558 0 9.55219 0 13H0C0 16.4478 1.36964 19.7544 3.80761 22.1924C6.24558 24.6304 9.55219 26 13 26C16.4478 26 19.7544 24.6304 22.1924 22.1924C24.6304 19.7544 26 16.4478 26 13C26 9.55219 24.6304 6.24558 22.1924 3.80761C19.7544 1.36964 16.4478 0 13 0V0ZM20.4858 16.2175C20.4858 16.7304 20.2821 17.2222 19.9195 17.5849C19.5568 17.9475 19.0649 18.1512 18.5521 18.1512H8.26042C7.74755 18.1512 7.2557 17.9475 6.89305 17.5849C6.5304 17.2222 6.32667 16.7304 6.32667 16.2175V9.7825C6.32667 9.26964 6.5304 8.77778 6.89305 8.41513C7.2557 8.05248 7.74755 7.84875 8.26042 7.84875H18.5521C19.0649 7.84875 19.5568 8.05248 19.9195 8.41513C20.2821 8.77778 20.4858 9.26964 20.4858 9.7825V16.2175Z" fill="#0055B8"/>
<path d="M19.2021 15.952V10.0479L16.25 12.9999L19.2021 15.952Z" fill="#0055B8"/>
</svg>
